<svg width="32" height="32" viewBox="0 0 32 32" fill="none" xmlns="http://www.w3.org/2000/svg">
<g id="Tshirt" clip-path="url(#clip0_843_176)">
<path id="Vector" d="M30.6352 12.8062L26.3194 4.09938C26.2284 3.9158 26.089 3.76045 25.9163 3.65016L20.7384 0.344997C20.125 -0.0466191 19.3325 -0.0546228 18.7197 0.324578C17.0725 1.34364 15.3079 1.31288 13.3253 0.230297C12.7231 -0.0985488 11.9859 -0.0737184 11.4015 0.295147L10.5084 0.858748C10.5073 0.859378 10.5064 0.860072 10.5053 0.860702L6.08756 3.64865C5.91255 3.75912 5.77145 3.91554 5.67956 4.10095L1.36454 12.8062C1.18077 13.1769 1.31828 13.6281 1.67744 13.8334L6.38729 16.5247V31.2441C6.38729 31.6609 6.72641 32 7.14324 32H24.8565C25.2733 32 25.6125 31.6609 25.6125 31.2441V26.1981C25.6125 25.937 25.4008 25.7254 25.1398 25.7254C24.8788 25.7254 24.6671 25.937 24.6671 26.1981V31.0547H7.33262V10.6347C7.33262 10.3737 7.12099 10.162 6.85995 10.162C6.59892 10.162 6.38729 10.3737 6.38729 10.6347V15.4359L2.27961 13.0887L6.52657 4.52074C6.54132 4.49093 6.564 4.46579 6.59211 4.44808L10.4321 2.02471C10.6486 2.80687 11.0296 3.53918 11.5546 4.17173C11.648 4.28441 11.7828 4.34251 11.9185 4.34251C12.0249 4.34251 12.1319 4.30685 12.2201 4.23355C12.421 4.0668 12.4487 3.76883 12.282 3.56798C11.7807 2.96386 11.4359 2.25171 11.2744 1.49312L11.9059 1.09457C11.9256 1.08216 11.9457 1.07063 11.966 1.05979C12.0899 1.94593 12.4996 2.76351 13.1485 3.39921C13.9146 4.14973 14.9273 4.56309 15.9999 4.56309C17.0638 4.56309 18.0705 4.15553 18.8345 3.41553C19.4954 2.77548 19.9132 1.94637 20.0362 1.04718C20.1032 1.07119 20.1683 1.10252 20.2298 1.14178L20.7312 1.4618C20.2748 3.68066 18.2923 5.31929 15.9999 5.31929C15.161 5.31929 14.333 5.09871 13.6055 4.68151C13.379 4.55162 13.0902 4.62989 12.9604 4.85633C12.8305 5.08277 12.9088 5.37166 13.1352 5.50148C14.0056 6.00067 14.9962 6.26455 15.9999 6.26455C18.6195 6.26455 20.9007 4.47455 21.574 1.99975L25.4076 4.44682C25.4354 4.46459 25.4578 4.48954 25.4724 4.51904L29.7201 13.0886L25.6125 15.4358V10.6346C25.6125 10.3735 25.4008 10.1619 25.1398 10.1619C24.8788 10.1619 24.6671 10.3735 24.6671 10.6346V24.3074C24.6671 24.5685 24.8788 24.7801 25.1398 24.7801C25.4008 24.7801 25.6125 24.5685 25.6125 24.3074V16.5247L30.3223 13.8334C30.6815 13.6281 30.819 13.1769 30.6352 12.8062ZM15.9998 3.61777C15.1761 3.61777 14.3983 3.30033 13.81 2.72393C13.3515 2.27478 13.0487 1.70759 12.9289 1.08997C15.1142 2.26495 17.1691 2.31341 19.0407 1.23366C18.7086 2.61182 17.4766 3.61777 15.9998 3.61777Z" fill="#171F18" stroke="#171F18" stroke-width="0.33"/>
</g>
<defs>
<clipPath id="clip0_843_176">
<rect width="32" height="32" fill="white"/>
</clipPath>
</defs>
</svg>
